<mxfile host="app.diagrams.net" modified="2023-11-09T16:10:44.900Z" agent="Mozilla/5.0 (Windows NT 10.0; Win64; x64) AppleWebKit/537.36 (KHTML, like Gecko) Chrome/119.0.0.0 Safari/537.36" etag="AjPydjjytiZtQlsXUE_X" version="22.0.8" type="github">
  <diagram name="Страница — 1" id="BuUBem0ewHwfyIRjRMvE">
    <mxGraphModel dx="1050" dy="522" grid="1" gridSize="10" guides="1" tooltips="1" connect="1" arrows="1" fold="1" page="1" pageScale="1" pageWidth="827" pageHeight="1169" math="0" shadow="0">
      <root>
        <mxCell id="0" />
        <mxCell id="1" parent="0" />
        <mxCell id="44ufFwkmmPq3kVpbUtVz-3" value="user" style="swimlane;whiteSpace=wrap;html=1;" parent="1" vertex="1">
          <mxGeometry x="70" y="250" width="220" height="200" as="geometry" />
        </mxCell>
        <mxCell id="44ufFwkmmPq3kVpbUtVz-4" value="&lt;div style=&quot;font-size: 17px;&quot;&gt;&lt;span style=&quot;background-color: initial;&quot;&gt;&lt;font style=&quot;font-size: 17px;&quot;&gt;id,&lt;/font&gt;&lt;/span&gt;&lt;/div&gt;&lt;div style=&quot;font-size: 17px;&quot;&gt;&lt;span style=&quot;background-color: initial;&quot;&gt;&lt;font style=&quot;font-size: 17px;&quot;&gt;name,&lt;/font&gt;&lt;/span&gt;&lt;/div&gt;&lt;div style=&quot;font-size: 17px;&quot;&gt;&lt;span style=&quot;background-color: initial;&quot;&gt;&lt;font style=&quot;font-size: 17px;&quot;&gt;surname,&lt;/font&gt;&lt;/span&gt;&lt;/div&gt;&lt;div style=&quot;font-size: 17px;&quot;&gt;&lt;span style=&quot;background-color: initial;&quot;&gt;&lt;font style=&quot;font-size: 17px;&quot;&gt;e-mail&lt;/font&gt;&lt;/span&gt;&lt;/div&gt;&lt;div style=&quot;font-size: 17px;&quot;&gt;&lt;span style=&quot;background-color: initial;&quot;&gt;&lt;font style=&quot;font-size: 17px;&quot;&gt;password,&lt;/font&gt;&lt;/span&gt;&lt;/div&gt;" style="text;strokeColor=none;align=left;fillColor=none;html=1;verticalAlign=middle;whiteSpace=wrap;rounded=0;" parent="44ufFwkmmPq3kVpbUtVz-3" vertex="1">
          <mxGeometry x="40" y="60" width="60" height="50" as="geometry" />
        </mxCell>
        <mxCell id="44ufFwkmmPq3kVpbUtVz-12" value="&lt;span style=&quot;font-size: 17px;&quot;&gt;has many conversation&lt;/span&gt;" style="text;whiteSpace=wrap;html=1;" parent="44ufFwkmmPq3kVpbUtVz-3" vertex="1">
          <mxGeometry x="40" y="140" width="200" height="40" as="geometry" />
        </mxCell>
        <mxCell id="44ufFwkmmPq3kVpbUtVz-6" value="botTokens" style="swimlane;whiteSpace=wrap;html=1;startSize=23;" parent="1" vertex="1">
          <mxGeometry x="80" y="840" width="200" height="200" as="geometry" />
        </mxCell>
        <mxCell id="44ufFwkmmPq3kVpbUtVz-7" value="&lt;div style=&quot;font-size: 17px;&quot;&gt;&lt;span style=&quot;background-color: initial;&quot;&gt;&lt;font style=&quot;font-size: 17px;&quot;&gt;id,&lt;/font&gt;&lt;/span&gt;&lt;/div&gt;&lt;div style=&quot;font-size: 17px;&quot;&gt;token,&amp;nbsp;&lt;/div&gt;&lt;div style=&quot;font-size: 17px;&quot;&gt;user_id: references to user_id&lt;/div&gt;&lt;div style=&quot;font-size: 17px;&quot;&gt;&lt;br&gt;&lt;/div&gt;" style="text;strokeColor=none;align=left;fillColor=none;html=1;verticalAlign=middle;whiteSpace=wrap;rounded=0;" parent="44ufFwkmmPq3kVpbUtVz-6" vertex="1">
          <mxGeometry x="30" y="75" width="170" height="50" as="geometry" />
        </mxCell>
        <mxCell id="44ufFwkmmPq3kVpbUtVz-9" value="conversation" style="swimlane;whiteSpace=wrap;html=1;startSize=23;" parent="1" vertex="1">
          <mxGeometry x="390" y="520" width="200" height="200" as="geometry" />
        </mxCell>
        <mxCell id="44ufFwkmmPq3kVpbUtVz-10" value="&lt;div style=&quot;font-size: 17px;&quot;&gt;&lt;span style=&quot;background-color: initial;&quot;&gt;&lt;font style=&quot;font-size: 17px;&quot;&gt;id,&lt;/font&gt;&lt;/span&gt;&lt;/div&gt;&lt;div style=&quot;font-size: 17px;&quot;&gt;user_id: references to user.id,&amp;nbsp;&lt;/div&gt;&lt;div style=&quot;font-size: 17px;&quot;&gt;to_id: (from tg api res),&lt;br&gt;bot_id: references to botTokens&lt;br&gt;&lt;br&gt;&lt;/div&gt;" style="text;strokeColor=none;align=left;fillColor=none;html=1;verticalAlign=middle;whiteSpace=wrap;rounded=0;" parent="44ufFwkmmPq3kVpbUtVz-9" vertex="1">
          <mxGeometry x="15" y="85" width="170" height="50" as="geometry" />
        </mxCell>
        <mxCell id="44ufFwkmmPq3kVpbUtVz-17" value="&lt;br&gt;&lt;span style=&quot;color: rgb(0, 0, 0); font-family: Helvetica; font-size: 17px; font-style: normal; font-variant-ligatures: normal; font-variant-caps: normal; font-weight: 400; letter-spacing: normal; orphans: 2; text-align: left; text-indent: 0px; text-transform: none; widows: 2; word-spacing: 0px; -webkit-text-stroke-width: 0px; background-color: rgb(251, 251, 251); text-decoration-thickness: initial; text-decoration-style: initial; text-decoration-color: initial; float: none; display: inline !important;&quot;&gt;has many message&lt;/span&gt;" style="text;whiteSpace=wrap;html=1;" parent="44ufFwkmmPq3kVpbUtVz-9" vertex="1">
          <mxGeometry x="15" y="150" width="200" height="40" as="geometry" />
        </mxCell>
        <mxCell id="44ufFwkmmPq3kVpbUtVz-11" value="&#xa;&lt;span style=&quot;color: rgb(0, 0, 0); font-family: Helvetica; font-size: 17px; font-style: normal; font-variant-ligatures: normal; font-variant-caps: normal; font-weight: 400; letter-spacing: normal; orphans: 2; text-align: left; text-indent: 0px; text-transform: none; widows: 2; word-spacing: 0px; -webkit-text-stroke-width: 0px; background-color: rgb(251, 251, 251); text-decoration-thickness: initial; text-decoration-style: initial; text-decoration-color: initial; float: none; display: inline !important;&quot;&gt;belongs to user&lt;/span&gt;&#xa;&#xa;" style="text;whiteSpace=wrap;html=1;" parent="1" vertex="1">
          <mxGeometry x="400" y="480" width="200" height="40" as="geometry" />
        </mxCell>
        <mxCell id="44ufFwkmmPq3kVpbUtVz-13" value="message" style="swimlane;whiteSpace=wrap;html=1;startSize=23;" parent="1" vertex="1">
          <mxGeometry x="390" y="820" width="200" height="200" as="geometry" />
        </mxCell>
        <mxCell id="44ufFwkmmPq3kVpbUtVz-14" value="&lt;div style=&quot;font-size: 17px;&quot;&gt;&lt;span style=&quot;background-color: initial;&quot;&gt;&lt;font style=&quot;font-size: 17px;&quot;&gt;id,&lt;/font&gt;&lt;/span&gt;&lt;/div&gt;&lt;div style=&quot;font-size: 17px;&quot;&gt;from,&lt;br&gt;name,&lt;br&gt;conversation_id: references to conversation.id,&lt;br&gt;text,&amp;nbsp;&lt;/div&gt;" style="text;strokeColor=none;align=left;fillColor=none;html=1;verticalAlign=middle;whiteSpace=wrap;rounded=0;" parent="44ufFwkmmPq3kVpbUtVz-13" vertex="1">
          <mxGeometry x="15" y="85" width="170" height="50" as="geometry" />
        </mxCell>
        <mxCell id="44ufFwkmmPq3kVpbUtVz-16" value="&lt;br&gt;&lt;span style=&quot;color: rgb(0, 0, 0); font-family: Helvetica; font-size: 17px; font-style: normal; font-variant-ligatures: normal; font-variant-caps: normal; font-weight: 400; letter-spacing: normal; orphans: 2; text-align: left; text-indent: 0px; text-transform: none; widows: 2; word-spacing: 0px; -webkit-text-stroke-width: 0px; background-color: rgb(251, 251, 251); text-decoration-thickness: initial; text-decoration-style: initial; text-decoration-color: initial; float: none; display: inline !important;&quot;&gt;belongs to conversation&lt;/span&gt;&lt;br&gt;" style="text;whiteSpace=wrap;html=1;" parent="1" vertex="1">
          <mxGeometry x="400" y="770" width="200" height="40" as="geometry" />
        </mxCell>
        <mxCell id="J_ukBCQktdDqZjA1IaZ4-1" value="token" style="swimlane;whiteSpace=wrap;html=1;startSize=23;" vertex="1" parent="1">
          <mxGeometry x="80" y="530" width="200" height="200" as="geometry" />
        </mxCell>
        <mxCell id="J_ukBCQktdDqZjA1IaZ4-2" value="&lt;div style=&quot;font-size: 17px;&quot;&gt;&lt;span style=&quot;background-color: initial;&quot;&gt;&lt;font style=&quot;font-size: 17px;&quot;&gt;id,&lt;/font&gt;&lt;/span&gt;&lt;/div&gt;&lt;div style=&quot;font-size: 17px;&quot;&gt;accessToken,&amp;nbsp;&lt;br&gt;refreshToke,&lt;/div&gt;&lt;div style=&quot;font-size: 17px;&quot;&gt;&lt;span style=&quot;background-color: initial;&quot;&gt;&lt;font style=&quot;font-size: 17px;&quot;&gt;user_id: references to user.id&lt;/font&gt;&lt;/span&gt;&lt;/div&gt;" style="text;strokeColor=none;align=left;fillColor=none;html=1;verticalAlign=middle;whiteSpace=wrap;rounded=0;" vertex="1" parent="J_ukBCQktdDqZjA1IaZ4-1">
          <mxGeometry x="14" y="75" width="170" height="50" as="geometry" />
        </mxCell>
        <mxCell id="J_ukBCQktdDqZjA1IaZ4-3" value="&lt;div style=&quot;font-size: 17px;&quot;&gt;belongs to user&lt;/div&gt;" style="text;strokeColor=none;align=left;fillColor=none;html=1;verticalAlign=middle;whiteSpace=wrap;rounded=0;" vertex="1" parent="1">
          <mxGeometry x="95" y="1040" width="170" height="50" as="geometry" />
        </mxCell>
        <mxCell id="J_ukBCQktdDqZjA1IaZ4-4" value="&lt;div style=&quot;font-size: 17px;&quot;&gt;new:{&amp;nbsp;&lt;br&gt;&amp;nbsp; &amp;nbsp; &amp;nbsp;channel: telegram| waba| instagram,&lt;/div&gt;&lt;div style=&quot;font-size: 17px;&quot;&gt;&amp;nbsp; &amp;nbsp; &amp;nbsp;channel_name: {&lt;br&gt;allowNull:true&lt;br&gt;}&amp;nbsp; &amp;nbsp;&lt;br&gt;}&lt;/div&gt;" style="text;strokeColor=none;align=left;fillColor=none;html=1;verticalAlign=middle;whiteSpace=wrap;rounded=0;" vertex="1" parent="1">
          <mxGeometry x="630" y="602.5" width="170" height="55" as="geometry" />
        </mxCell>
      </root>
    </mxGraphModel>
  </diagram>
</mxfile>
